
      <svg data-logo="logo" xmlns="http://www.w3.org/2000/svg" viewBox="0 0 166 43">
        <g id="logogram" transform="translate(0, 1) rotate(0) "><path d="M25.3019 0.809967L50.3018 15.8198V25.7963L25.3019 40.81L0.301758 25.7963V15.8199L25.3019 0.809967Z" fill="#A5B4FC"/><path fill-rule="evenodd" clip-rule="evenodd" d="M0.301758 15.8198L25.3018 0.809967L50.3018 15.8198V25.7963L25.3018 40.81L0.301758 25.7963V15.8198ZM25.3018 34.441L44.9985 22.6122V19.0051L44.9975 19.0045L25.3018 30.8297L5.60602 19.0045L5.60506 19.0051V22.6122L25.3018 34.441ZM25.3018 25.3146L40.4036 16.2476L36.7247 14.0398L25.3018 20.8981L13.8789 14.0398L10.2 16.2476L25.3018 25.3146ZM25.3018 15.383L32.1308 11.2829L25.3018 7.18464L18.4728 11.2829L25.3018 15.383Z" fill="#4F46E5"/><path d="M25.3019 0.809967L0.301758 15.8199V25.7963L25.3018 40.81L25.3019 0.809967Z" fill="#A5B4FC" fill-opacity="0.3"/></g>
        <g id="logotype" transform="translate(57, 8)"><path fill="#111111" d="M13.64 27L8.31 27L8.31 1.54L14.12 1.54L22.17 14.42Q22.78 15.41 23.41 16.58Q24.05 17.74 24.70 19.16Q25.36 20.57 26.01 22.35L26.01 22.35L25.48 22.35Q25.36 20.93 25.27 19.33Q25.17 17.72 25.11 16.25Q25.04 14.78 25.04 13.76L25.04 13.76L25.04 1.54L30.37 1.54L30.37 27L24.54 27L17.23 15.31Q16.42 13.99 15.74 12.76Q15.06 11.52 14.31 10.01Q13.57 8.51 12.55 6.44L12.55 6.44L13.21 6.44Q13.31 8.29 13.42 9.98Q13.52 11.67 13.58 13.05Q13.64 14.42 13.64 15.29L13.64 15.29L13.64 27ZM41.13 27.38L41.13 27.38Q38.26 27.38 36.16 26.14Q34.06 24.90 32.92 22.68Q31.79 20.47 31.79 17.53L31.79 17.53Q31.79 14.56 32.92 12.35Q34.06 10.13 36.16 8.89Q38.26 7.65 41.13 7.65L41.13 7.65Q44.02 7.65 46.12 8.89Q48.21 10.13 49.35 12.35Q50.48 14.56 50.48 17.53L50.48 17.53Q50.48 20.47 49.35 22.68Q48.21 24.90 46.12 26.14Q44.02 27.38 41.13 27.38ZM41.13 23.34L41.13 23.34Q42.50 23.34 43.42 22.58Q44.35 21.82 44.81 20.50Q45.27 19.17 45.27 17.52L45.27 17.52Q45.27 15.82 44.81 14.51Q44.35 13.19 43.42 12.44Q42.50 11.69 41.13 11.69L41.13 11.69Q39.77 11.69 38.85 12.44Q37.94 13.19 37.48 14.51Q37.02 15.82 37.02 17.52L37.02 17.52Q37.02 19.17 37.48 20.50Q37.94 21.82 38.85 22.58Q39.77 23.34 41.13 23.34ZM49.93 7.89L61.26 7.89L61.26 11.81L49.93 11.81L49.93 7.89ZM52.57 21.86L52.57 3.35L57.69 3.35L57.69 21.41Q57.69 22.32 58.09 22.75Q58.50 23.19 59.44 23.19L59.44 23.19Q59.73 23.19 60.26 23.11Q60.79 23.04 61.06 22.97L61.06 22.97L61.79 26.81Q60.94 27.07 60.09 27.17Q59.25 27.27 58.48 27.27L58.48 27.27Q55.61 27.27 54.09 25.87Q52.57 24.47 52.57 21.86L52.57 21.86ZM60.48 7.89L71.81 7.89L71.81 11.81L60.48 11.81L60.48 7.89ZM63.11 21.86L63.11 3.35L68.24 3.35L68.24 21.41Q68.24 22.32 68.64 22.75Q69.04 23.19 69.98 23.19L69.98 23.19Q70.27 23.19 70.80 23.11Q71.33 23.04 71.60 22.97L71.60 22.97L72.34 26.81Q71.48 27.07 70.64 27.17Q69.79 27.27 69.02 27.27L69.02 27.27Q66.15 27.27 64.63 25.87Q63.11 24.47 63.11 21.86L63.11 21.86ZM78.20 27.38L78.20 27.38Q76.38 27.38 74.94 26.74Q73.50 26.09 72.67 24.82Q71.84 23.55 71.84 21.65L71.84 21.65Q71.84 20.06 72.43 18.98Q73.02 17.91 74.04 17.26Q75.05 16.61 76.34 16.27Q77.63 15.93 79.05 15.79L79.05 15.79Q80.71 15.62 81.73 15.47Q82.74 15.33 83.21 15.01Q83.68 14.70 83.68 14.08L83.68 14.08L83.68 13.99Q83.68 13.17 83.34 12.61Q83.00 12.05 82.33 11.75Q81.67 11.45 80.69 11.45L80.69 11.45Q79.70 11.45 78.97 11.75Q78.23 12.05 77.77 12.54Q77.31 13.04 77.09 13.65L77.09 13.65L72.39 12.87Q72.88 11.21 74.03 10.05Q75.17 8.88 76.87 8.27Q78.57 7.65 80.69 7.65L80.69 7.65Q82.25 7.65 83.70 8.02Q85.15 8.39 86.31 9.16Q87.46 9.93 88.13 11.16Q88.81 12.39 88.81 14.13L88.81 14.13L88.81 27L83.96 27L83.96 24.35L83.78 24.35Q83.32 25.24 82.55 25.91Q81.79 26.59 80.70 26.98Q79.61 27.38 78.20 27.38ZM79.65 23.77L79.65 23.77Q80.86 23.77 81.78 23.29Q82.69 22.81 83.20 21.99Q83.72 21.17 83.72 20.16L83.72 20.16L83.72 18.10Q83.49 18.27 83.03 18.40Q82.57 18.54 82.01 18.64Q81.44 18.75 80.90 18.83Q80.35 18.92 79.92 18.97L79.92 18.97Q78.98 19.10 78.26 19.41Q77.55 19.72 77.15 20.22Q76.76 20.73 76.76 21.51L76.76 21.51Q76.76 22.25 77.14 22.75Q77.51 23.26 78.15 23.51Q78.79 23.77 79.65 23.77ZM96.04 27L90.91 27L90.91 7.89L95.87 7.89L95.87 11.23L96.07 11.23Q96.60 9.45 97.84 8.54Q99.08 7.64 100.68 7.64L100.68 7.64Q101.08 7.64 101.53 7.68Q101.98 7.72 102.34 7.81L102.34 7.81L102.34 12.39Q102.00 12.27 101.35 12.20Q100.70 12.13 100.12 12.13L100.12 12.13Q98.96 12.13 98.02 12.64Q97.08 13.14 96.56 14.04Q96.04 14.93 96.04 16.13L96.04 16.13L96.04 27ZM108.01 27L102.89 27L102.89 7.89L108.01 7.89L108.01 27ZM105.45 5.40L105.45 5.40Q104.29 5.40 103.47 4.63Q102.65 3.86 102.65 2.77L102.65 2.77Q102.65 1.67 103.47 0.90Q104.29 0.13 105.45 0.13L105.45 0.13Q106.61 0.13 107.44 0.90Q108.27 1.66 108.27 2.77L108.27 2.77Q108.27 3.86 107.44 4.63Q106.61 5.40 105.45 5.40Z"/></g>
        
      </svg>
    